<svg xmlns="http://www.w3.org/2000/svg" xmlns:xlink="http://www.w3.org/1999/xlink" width="250" zoomAndPan="magnify" viewBox="0 0 187.5 187.499992" height="250" preserveAspectRatio="xMidYMid meet" version="1.0"><defs><clipPath id="c3f8db8506"><path d="M 9.96875 8.191406 L 112.128906 8.191406 L 112.128906 178.738281 L 9.96875 178.738281 Z M 9.96875 8.191406 " clip-rule="nonzero"/></clipPath><clipPath id="3f2cc68f4c"><path d="M 101 8 L 178 8 L 178 85 L 101 85 Z M 101 8 " clip-rule="nonzero"/></clipPath><clipPath id="727ab8f444"><path d="M 159.347656 8.195312 L 177.34375 26.191406 L 119.082031 84.453125 L 101.082031 66.457031 Z M 159.347656 8.195312 " clip-rule="nonzero"/></clipPath><clipPath id="00adb2dac8"><path d="M 101 102 L 178 102 L 178 179 L 101 179 Z M 101 102 " clip-rule="nonzero"/></clipPath><clipPath id="50cc07a33b"><path d="M 177.335938 160.804688 L 159.339844 178.804688 L 101.074219 120.542969 L 119.074219 102.542969 Z M 177.335938 160.804688 " clip-rule="nonzero"/></clipPath></defs><g clip-path="url(#c3f8db8506)"><path fill="#ffbd59" d="M 27.59375 178.617188 L 112.429688 93.78125 L 27.003906 8.355469 L 9.632812 25.726562 L 77.6875 93.78125 L 10.222656 161.25 L 27.59375 178.617188 " fill-opacity="1" fill-rule="nonzero"/></g><g clip-path="url(#3f2cc68f4c)"><g clip-path="url(#727ab8f444)"><path fill="#ffbd5a" d="M 159.347656 8.195312 L 177.34375 26.191406 L 119.058594 84.480469 L 101.058594 66.480469 Z M 159.347656 8.195312 " fill-opacity="1" fill-rule="nonzero"/></g></g><g clip-path="url(#00adb2dac8)"><g clip-path="url(#50cc07a33b)"><path fill="#ffbd5a" d="M 177.335938 160.804688 L 159.339844 178.804688 L 101.050781 120.519531 L 119.050781 102.519531 Z M 177.335938 160.804688 " fill-opacity="1" fill-rule="nonzero"/></g></g></svg>