<svg xmlns="http://www.w3.org/2000/svg" xmlns:xlink="http://www.w3.org/1999/xlink" version="1.1" id="Layer_1" width="512" height="512" viewBox="0 0 128 128" xml:space="preserve">
<g>
	<circle style="fill:#2D4452;" cx="64" cy="64" r="64"/>
	<g>
		<path style="fill:#E6E6E6;" d="M13,41c0,0,35-9,38-10s11,0,11,11c-2,0-3,0-4,0c0-3-1-7-5-7c-4,1-17,6-17,6H13z"/>
		<g>
			<path style="fill:#D9D9D9;" d="M50,35c-4,1-17,6-17,6h3c0,0,10.89-4.188,15.801-5.664C51.28,35.125,50.687,35,50,35z"/>
			<path style="fill:#D9D9D9;" d="M51.604,30.842C55.006,31.45,59,34.227,59,42c0.749,0,1.643,0,3,0     C62,31.672,54.948,30.16,51.604,30.842z"/>
		</g>
		<path style="fill:#E6E6E6;" d="M115,41c0,0-35-9-38-10s-11,0-11,11c2,0,3,0,4,0c0-3,1-7,5-7c4,1,17,6,17,6H115z"/>
		<g>
			<path style="fill:#D9D9D9;" d="M71,35c-3.74,0-4.855,3.497-4.986,6.404C66.008,41.602,66,41.795,66,42c2,0,3,0,4,0     c0-2.35,0.62-5.303,2.807-6.479C72.1,35.301,71.482,35.121,71,35z"/>
			<path style="fill:#D9D9D9;" d="M77,31c-0.992-0.33-2.531-0.439-4.146-0.043C72.902,30.971,72.954,30.984,73,31c3,1,38,10,38,10h4     C115,41,80,32,77,31z"/>
		</g>
		<path style="fill:#F5F5F5;" d="M14,41c-3.3,0-6,2.7-6,6v25c0,3.3,2.7,6,6,6h31.916c3.3,0,7.183-2.427,8.628-5.395    c0,0,3.706-8.605,9.456-8.605s9.456,8.605,9.456,8.605C74.9,75.573,78.784,78,82.084,78H114c3.3,0,6-2.7,6-6V47c0-3.3-2.7-6-6-6    H14z"/>
		<g>
			<path style="fill:#E6E6E6;" d="M61,64c-5.75,0-9.456,8.605-9.456,8.605C50.099,75.573,46.216,78,42.916,78h3     c3.3,0,7.183-2.427,8.628-5.395c0,0,3.073-7.103,7.956-8.389C62.016,64.091,61.52,64,61,64z"/>
			<path style="fill:#E6E6E6;" d="M114,41h-3c3.3,0,6,2.7,6,6v25c0,3.3-2.7,6-6,6h3c3.3,0,6-2.7,6-6V47C120,43.7,117.3,41,114,41z"/>
		</g>
		<path style="fill:#CC584C;" d="M112,46H75c-2.2,0-4,1.8-4,4v10.605c4.921,3.274,7.582,9.127,7.967,10.021l0.16,0.373H112    c2.2,0,4-1.8,4-4v-17C116,47.8,114.2,46,112,46z"/>
		<path style="fill:#2995CC;" d="M49.033,70.627c0.385-0.895,3.046-6.746,7.967-10.021V50c0-2.2-1.8-4-4-4H16c-2.2,0-4,1.8-4,4v17    c0,2.2,1.8,4,4,4h32.873L49.033,70.627z"/>
		<g>
			<polygon style="fill:#52A3CC;" points="26.429,46 12,60.43 12,66.085 32.085,46    "/>
			<path style="fill:#52A3CC;" d="M40.571,46h-2.829L13.581,70.161c0.576,0.442,1.271,0.724,2.03,0.8L40.571,46z"/>
		</g>
		<g>
			<polygon style="fill:#CC827A;" points="103.742,46 79.012,70.73 79.127,71 81.57,71 106.57,46    "/>
			<path style="fill:#CC827A;" d="M92.43,46L74.611,63.816c0.968,1.095,1.775,2.216,2.425,3.233l21.05-21.051L92.43,46L92.43,46z"/>
		</g>
	</g>
	<path style="fill:#FFD464;" d="M100,101c2.209,0,4-1.791,4-4s-1.791-4-4-4c-0.732,0-1.41,0.211-2,0.555   C97.41,93.211,96.732,93,96,93c-0.047,0-0.091,0.014-0.137,0.014C95.422,91.285,93.867,90,92,90c-1.746,0-3.215,1.126-3.762,2.686   c-0.375-0.254-0.801-0.434-1.252-0.549C86.986,92.091,87,92.047,87,92c0-2.209-1.791-4-4-4c-0.986,0-1.878,0.371-2.575,0.963   C79.727,87.792,78.462,87,77,87c-0.38,0-0.741,0.07-1.089,0.169C75.527,85.359,73.924,84,72,84s-3.527,1.359-3.911,3.169   C67.741,87.07,67.38,87,67,87c-1.232,0-2.322,0.57-3.056,1.447C63.673,86.502,62.02,85,60,85c-2.064,0-3.744,1.57-3.958,3.578   C55.442,88.219,54.749,88,54,88c-0.692,0-1.333,0.191-1.9,0.501C51.367,87.593,50.258,87,49,87c-1.742,0-3.208,1.12-3.757,2.674   C44.517,88.664,43.339,88,42,88c-0.692,0-1.333,0.191-1.9,0.501C39.367,87.593,38.258,87,37,87c-1.924,0-3.528,1.359-3.911,3.169   C32.741,90.07,32.38,90,32,90c-1.867,0-3.421,1.284-3.863,3.014C28.091,93.014,28.047,93,28,93c-2.209,0-4,1.791-4,4s1.791,4,4,4   H100z"/>
	<path style="fill:#E6E6E6;" d="M24,113.943C34.958,122.73,48.86,128,64,128c15.141,0,29.042-5.27,40-14.057V98H24V113.943z"/>
	<path style="fill:#F5F5F5;" d="M107,100c0,1.1-0.9,2-2,2H23c-1.1,0-2-0.9-2-2l0,0c0-1.1,0.9-2,2-2h82C106.1,98,107,98.9,107,100   L107,100z"/>
	<g>
		<path style="fill:#E16B5A;" d="M49,102h-2v23.699c0.663,0.183,1.329,0.354,2,0.516V102z"/>
		<path style="fill:#E16B5A;" d="M41,102h-2v20.932c0.659,0.278,1.33,0.534,2,0.793V102z"/>
		<path style="fill:#E16B5A;" d="M45,102h-2v22.457c0.664,0.23,1.326,0.465,2,0.675V102z"/>
		<path style="fill:#E16B5A;" d="M53,102h-2v24.676c0.661,0.137,1.332,0.247,2,0.363V102z"/>
		<path style="fill:#E16B5A;" d="M33,102h-2v16.842c0.658,0.396,1.327,0.776,2,1.149V102z"/>
		<path style="fill:#E16B5A;" d="M99,117.57c0.676-0.441,1.342-0.898,2-1.366V102h-2V117.57z"/>
		<path style="fill:#E16B5A;" d="M29,117.57V102h-2v14.204C27.658,116.672,28.324,117.129,29,117.57z"/>
		<path style="fill:#E16B5A;" d="M57,102h-2v25.357c0.664,0.094,1.33,0.182,2,0.254V102z"/>
		<path style="fill:#E16B5A;" d="M37,102h-2v19.047c0.661,0.337,1.326,0.665,2,0.979V102z"/>
		<path style="fill:#E16B5A;" d="M71,127.611c0.67-0.072,1.336-0.16,2-0.254V102h-2V127.611z"/>
		<path style="fill:#E16B5A;" d="M87,123.725c0.67-0.259,1.341-0.515,2-0.793V102h-2V123.725z"/>
		<path style="fill:#E16B5A;" d="M61,102h-2v25.787c0.665,0.051,1.329,0.105,2,0.137V102z"/>
		<path style="fill:#E16B5A;" d="M83,125.132c0.674-0.21,1.336-0.444,2-0.675V102h-2V125.132z"/>
		<path style="fill:#E16B5A;" d="M91,122.025c0.674-0.313,1.339-0.643,2-0.979V102h-2V122.025z"/>
		<path style="fill:#E16B5A;" d="M79,126.215c0.671-0.16,1.337-0.333,2-0.516V102h-2V126.215z"/>
		<path style="fill:#E16B5A;" d="M67,127.924c0.671-0.029,1.335-0.086,2-0.137V102h-2V127.924z"/>
		<path style="fill:#E16B5A;" d="M65,127.975V102h-2v25.975c0.334,0.006,0.665,0.025,1,0.025S64.666,127.979,65,127.975z"/>
		<path style="fill:#E16B5A;" d="M95,119.991c0.673-0.373,1.342-0.753,2-1.149V102h-2V119.991z"/>
		<path style="fill:#E16B5A;" d="M75,127.039c0.668-0.116,1.339-0.227,2-0.363V102h-2V127.039z"/>
	</g>
</g>
</svg>