<svg width="342" height="513" viewBox="0 0 342 513" fill="none" xmlns="http://www.w3.org/2000/svg">
<rect width="342" height="513" fill="#0A0A0A"/>
<path d="M126 274.563L149.645 250.917C150.603 249.959 151.74 249.2 152.991 248.682C154.242 248.163 155.583 247.897 156.938 247.897C158.292 247.897 159.633 248.163 160.884 248.682C162.135 249.2 163.272 249.959 164.23 250.917L187.875 274.563M181 267.688L187.458 261.23C188.416 260.272 189.552 259.512 190.804 258.994C192.055 258.476 193.396 258.209 194.75 258.209C196.104 258.209 197.445 258.476 198.696 258.994C199.948 259.512 201.084 260.272 202.042 261.23L215.375 274.563M132.875 291.75H208.5C210.323 291.75 212.072 291.026 213.361 289.736C214.651 288.447 215.375 286.698 215.375 284.875V229.875C215.375 228.052 214.651 226.303 213.361 225.014C212.072 223.724 210.323 223 208.5 223H132.875C131.052 223 129.303 223.724 128.014 225.014C126.724 226.303 126 228.052 126 229.875V284.875C126 286.698 126.724 288.447 128.014 289.736C129.303 291.026 131.052 291.75 132.875 291.75ZM181 240.188H181.037V240.224H181V240.188ZM182.719 240.188C182.719 240.643 182.538 241.081 182.215 241.403C181.893 241.725 181.456 241.906 181 241.906C180.544 241.906 180.107 241.725 179.785 241.403C179.462 241.081 179.281 240.643 179.281 240.188C179.281 239.732 179.462 239.294 179.785 238.972C180.107 238.65 180.544 238.469 181 238.469C181.456 238.469 181.893 238.65 182.215 238.972C182.538 239.294 182.719 239.732 182.719 240.188Z" stroke="#F4F4F4" stroke-width="5" stroke-linecap="round" stroke-linejoin="round"/>
</svg>
