<svg width="200" height="300" viewBox="0 0 200 300" fill="none" xmlns="http://www.w3.org/2000/svg">
<rect width="200" height="300" fill="#F7FFF7"/>
<path d="M51.2243 145V130.455H56.139C57.2801 130.455 58.2129 130.661 58.9373 131.072C59.6665 131.48 60.2063 132.031 60.5566 132.727C60.907 133.423 61.0822 134.2 61.0822 135.057C61.0822 135.914 60.907 136.693 60.5566 137.393C60.211 138.094 59.676 138.653 58.9515 139.07C58.2271 139.482 57.2991 139.688 56.1674 139.688H52.6447V138.125H56.1106C56.8919 138.125 57.5192 137.99 57.9927 137.72C58.4662 137.45 58.8095 137.086 59.0225 136.626C59.2404 136.162 59.3493 135.639 59.3493 135.057C59.3493 134.474 59.2404 133.954 59.0225 133.494C58.8095 133.035 58.4638 132.675 57.9856 132.415C57.5074 132.15 56.8729 132.017 56.0822 132.017H52.9856V145H51.2243ZM68.0069 145.227C67.0221 145.227 66.158 144.993 65.4146 144.524C64.676 144.055 64.0983 143.4 63.6816 142.557C63.2697 141.714 63.0637 140.729 63.0637 139.602C63.0637 138.466 63.2697 137.474 63.6816 136.626C64.0983 135.779 64.676 135.121 65.4146 134.652C66.158 134.183 67.0221 133.949 68.0069 133.949C68.9918 133.949 69.8535 134.183 70.5922 134.652C71.3355 135.121 71.9132 135.779 72.3251 136.626C72.7418 137.474 72.9501 138.466 72.9501 139.602C72.9501 140.729 72.7418 141.714 72.3251 142.557C71.9132 143.4 71.3355 144.055 70.5922 144.524C69.8535 144.993 68.9918 145.227 68.0069 145.227ZM68.0069 143.722C68.755 143.722 69.3706 143.53 69.8535 143.146C70.3365 142.763 70.694 142.259 70.926 141.634C71.158 141.009 71.274 140.331 71.274 139.602C71.274 138.873 71.158 138.194 70.926 137.564C70.694 136.934 70.3365 136.425 69.8535 136.037C69.3706 135.649 68.755 135.455 68.0069 135.455C67.2588 135.455 66.6433 135.649 66.1603 136.037C65.6774 136.425 65.3199 136.934 65.0879 137.564C64.8559 138.194 64.7399 138.873 64.7399 139.602C64.7399 140.331 64.8559 141.009 65.0879 141.634C65.3199 142.259 65.6774 142.763 66.1603 143.146C66.6433 143.53 67.2588 143.722 68.0069 143.722ZM83.236 136.534L81.7303 136.96C81.6356 136.709 81.4959 136.465 81.3113 136.229C81.1313 135.987 80.8851 135.788 80.5726 135.632C80.2601 135.476 79.86 135.398 79.3723 135.398C78.7047 135.398 78.1484 135.552 77.7033 135.859C77.263 136.162 77.0428 136.548 77.0428 137.017C77.0428 137.434 77.1943 137.763 77.4973 138.004C77.8004 138.246 78.2739 138.447 78.9178 138.608L80.5371 139.006C81.5125 139.242 82.2393 139.605 82.7175 140.092C83.1957 140.575 83.4348 141.198 83.4348 141.96C83.4348 142.585 83.2549 143.144 82.8951 143.636C82.54 144.129 82.0428 144.517 81.4036 144.801C80.7644 145.085 80.021 145.227 79.1735 145.227C78.0608 145.227 77.1399 144.986 76.4107 144.503C75.6815 144.02 75.2199 143.314 75.0257 142.386L76.6167 141.989C76.7682 142.576 77.0546 143.016 77.476 143.31C77.9022 143.603 78.4585 143.75 79.1451 143.75C79.9263 143.75 80.5466 143.584 81.0059 143.253C81.4699 142.917 81.7019 142.514 81.7019 142.045C81.7019 141.667 81.5693 141.349 81.3042 141.094C81.039 140.833 80.6318 140.639 80.0826 140.511L78.2644 140.085C77.2653 139.848 76.5314 139.482 76.0627 138.984C75.5987 138.482 75.3667 137.855 75.3667 137.102C75.3667 136.487 75.5395 135.942 75.8851 135.469C76.2355 134.995 76.7114 134.624 77.3127 134.354C77.9187 134.084 78.6053 133.949 79.3723 133.949C80.4519 133.949 81.2994 134.186 81.915 134.659C82.5352 135.133 82.9756 135.758 83.236 136.534ZM90.7022 134.091V135.511H85.0488V134.091H90.7022ZM86.6966 131.477H88.3727V141.875C88.3727 142.348 88.4413 142.704 88.5787 142.94C88.7207 143.172 88.9006 143.329 89.1184 143.409C89.341 143.485 89.5753 143.523 89.8216 143.523C90.0062 143.523 90.1577 143.513 90.2761 143.494C90.3945 143.471 90.4892 143.452 90.5602 143.438L90.9011 144.943C90.7875 144.986 90.6288 145.028 90.4252 145.071C90.2217 145.118 89.9636 145.142 89.6511 145.142C89.1776 145.142 88.7136 145.04 88.2591 144.837C87.8092 144.633 87.4352 144.323 87.1369 143.906C86.8433 143.49 86.6966 142.964 86.6966 142.33V131.477ZM97.6802 145.227C96.6291 145.227 95.7224 144.995 94.96 144.531C94.2025 144.062 93.6177 143.409 93.2058 142.571C92.7986 141.728 92.595 140.748 92.595 139.631C92.595 138.513 92.7986 137.528 93.2058 136.676C93.6177 135.819 94.1906 135.152 94.9245 134.673C95.6632 134.19 96.5249 133.949 97.5098 133.949C98.0779 133.949 98.639 134.044 99.193 134.233C99.747 134.422 100.251 134.73 100.706 135.156C101.16 135.578 101.523 136.136 101.792 136.832C102.062 137.528 102.197 138.385 102.197 139.403V140.114H93.7882V138.665H100.493C100.493 138.049 100.37 137.5 100.123 137.017C99.8819 136.534 99.5363 136.153 99.0865 135.874C98.6414 135.594 98.1158 135.455 97.5098 135.455C96.8422 135.455 96.2645 135.62 95.7768 135.952C95.2939 136.278 94.9222 136.705 94.6618 137.23C94.4013 137.756 94.2711 138.319 94.2711 138.92V139.886C94.2711 140.71 94.4132 141.409 94.6973 141.982C94.9861 142.55 95.3862 142.983 95.8975 143.281C96.4089 143.575 97.0031 143.722 97.6802 143.722C98.1206 143.722 98.5183 143.66 98.8734 143.537C99.2333 143.409 99.5434 143.22 99.8038 142.969C100.064 142.713 100.265 142.396 100.407 142.017L102.027 142.472C101.856 143.021 101.57 143.504 101.167 143.92C100.765 144.332 100.268 144.654 99.676 144.886C99.0841 145.114 98.4189 145.227 97.6802 145.227ZM104.747 145V134.091H106.366V135.739H106.48C106.679 135.199 107.039 134.761 107.559 134.425C108.08 134.089 108.667 133.92 109.321 133.92C109.444 133.92 109.598 133.923 109.782 133.928C109.967 133.932 110.107 133.939 110.202 133.949V135.653C110.145 135.639 110.015 135.618 109.811 135.589C109.612 135.556 109.401 135.54 109.179 135.54C108.648 135.54 108.175 135.651 107.758 135.874C107.346 136.091 107.02 136.394 106.778 136.783C106.541 137.166 106.423 137.604 106.423 138.097V145H104.747ZM129.575 130.455V145H127.87L119.944 133.58H119.802V145H118.041V130.455H119.745L127.7 141.903H127.842V130.455H129.575ZM137.304 145.227C136.319 145.227 135.455 144.993 134.711 144.524C133.973 144.055 133.395 143.4 132.979 142.557C132.567 141.714 132.361 140.729 132.361 139.602C132.361 138.466 132.567 137.474 132.979 136.626C133.395 135.779 133.973 135.121 134.711 134.652C135.455 134.183 136.319 133.949 137.304 133.949C138.289 133.949 139.15 134.183 139.889 134.652C140.632 135.121 141.21 135.779 141.622 136.626C142.039 137.474 142.247 138.466 142.247 139.602C142.247 140.729 142.039 141.714 141.622 142.557C141.21 143.4 140.632 144.055 139.889 144.524C139.15 144.993 138.289 145.227 137.304 145.227ZM137.304 143.722C138.052 143.722 138.667 143.53 139.15 143.146C139.633 142.763 139.991 142.259 140.223 141.634C140.455 141.009 140.571 140.331 140.571 139.602C140.571 138.873 140.455 138.194 140.223 137.564C139.991 136.934 139.633 136.425 139.15 136.037C138.667 135.649 138.052 135.455 137.304 135.455C136.556 135.455 135.94 135.649 135.457 136.037C134.974 136.425 134.617 136.934 134.385 137.564C134.153 138.194 134.037 138.873 134.037 139.602C134.037 140.331 134.153 141.009 134.385 141.634C134.617 142.259 134.974 142.763 135.457 143.146C135.94 143.53 136.556 143.722 137.304 143.722ZM149.55 134.091V135.511H143.896V134.091H149.55ZM145.544 131.477H147.22V141.875C147.22 142.348 147.289 142.704 147.426 142.94C147.568 143.172 147.748 143.329 147.966 143.409C148.189 143.485 148.423 143.523 148.669 143.523C148.854 143.523 149.005 143.513 149.124 143.494C149.242 143.471 149.337 143.452 149.408 143.438L149.749 144.943C149.635 144.986 149.477 145.028 149.273 145.071C149.069 145.118 148.811 145.142 148.499 145.142C148.025 145.142 147.561 145.04 147.107 144.837C146.657 144.633 146.283 144.323 145.985 143.906C145.691 143.49 145.544 142.964 145.544 142.33V131.477ZM72.4547 169V154.455H81.1763V156.017H74.2161V160.932H80.5229V162.494H74.2161V169H72.4547ZM87.5968 169.227C86.6119 169.227 85.7478 168.993 85.0044 168.524C84.2658 168.055 83.6882 167.4 83.2715 166.557C82.8596 165.714 82.6536 164.729 82.6536 163.602C82.6536 162.466 82.8596 161.474 83.2715 160.626C83.6882 159.779 84.2658 159.121 85.0044 158.652C85.7478 158.183 86.6119 157.949 87.5968 157.949C88.5816 157.949 89.4434 158.183 90.182 158.652C90.9254 159.121 91.503 159.779 91.915 160.626C92.3316 161.474 92.54 162.466 92.54 163.602C92.54 164.729 92.3316 165.714 91.915 166.557C91.503 167.4 90.9254 168.055 90.182 168.524C89.4434 168.993 88.5816 169.227 87.5968 169.227ZM87.5968 167.722C88.3449 167.722 88.9604 167.53 89.4434 167.146C89.9263 166.763 90.2838 166.259 90.5158 165.634C90.7478 165.009 90.8638 164.331 90.8638 163.602C90.8638 162.873 90.7478 162.194 90.5158 161.564C90.2838 160.934 89.9263 160.425 89.4434 160.037C88.9604 159.649 88.3449 159.455 87.5968 159.455C86.8487 159.455 86.2331 159.649 85.7502 160.037C85.2672 160.425 84.9097 160.934 84.6777 161.564C84.4457 162.194 84.3297 162.873 84.3297 163.602C84.3297 164.331 84.4457 165.009 84.6777 165.634C84.9097 166.259 85.2672 166.763 85.7502 167.146C86.2331 167.53 86.8487 167.722 87.5968 167.722ZM101.974 164.54V158.091H103.65V169H101.974V167.153H101.86C101.604 167.707 101.206 168.179 100.667 168.567C100.127 168.95 99.4451 169.142 98.6213 169.142C97.9395 169.142 97.3334 168.993 96.8031 168.695C96.2728 168.392 95.8561 167.937 95.5531 167.331C95.2501 166.72 95.0985 165.951 95.0985 165.023V158.091H96.7747V164.909C96.7747 165.705 96.9972 166.339 97.4423 166.812C97.8921 167.286 98.465 167.523 99.161 167.523C99.5777 167.523 100.001 167.416 100.432 167.203C100.868 166.99 101.233 166.663 101.526 166.223C101.824 165.783 101.974 165.222 101.974 164.54ZM108.396 162.438V169H106.72V158.091H108.339V159.795H108.481C108.737 159.241 109.125 158.796 109.646 158.46C110.167 158.119 110.839 157.949 111.663 157.949C112.401 157.949 113.048 158.1 113.602 158.403C114.156 158.702 114.587 159.156 114.894 159.767C115.202 160.373 115.356 161.14 115.356 162.068V169H113.68V162.182C113.68 161.325 113.457 160.657 113.012 160.179C112.567 159.696 111.956 159.455 111.18 159.455C110.645 159.455 110.167 159.571 109.745 159.803C109.329 160.035 108.999 160.373 108.758 160.818C108.517 161.263 108.396 161.803 108.396 162.438ZM122.538 169.227C121.629 169.227 120.827 168.998 120.131 168.538C119.434 168.074 118.89 167.421 118.497 166.578C118.104 165.731 117.907 164.729 117.907 163.574C117.907 162.428 118.104 161.434 118.497 160.591C118.89 159.748 119.437 159.097 120.138 158.638C120.838 158.179 121.648 157.949 122.567 157.949C123.277 157.949 123.838 158.067 124.25 158.304C124.666 158.536 124.984 158.801 125.202 159.099C125.424 159.393 125.597 159.634 125.72 159.824H125.862V154.455H127.538V169H125.919V167.324H125.72C125.597 167.523 125.422 167.774 125.194 168.077C124.967 168.375 124.643 168.643 124.221 168.879C123.8 169.111 123.239 169.227 122.538 169.227ZM122.765 167.722C123.438 167.722 124.006 167.546 124.47 167.196C124.934 166.841 125.287 166.351 125.528 165.726C125.77 165.096 125.89 164.369 125.89 163.545C125.89 162.731 125.772 162.018 125.535 161.408C125.299 160.792 124.948 160.314 124.484 159.973C124.02 159.627 123.447 159.455 122.765 159.455C122.055 159.455 121.463 159.637 120.99 160.001C120.521 160.361 120.168 160.851 119.932 161.472C119.7 162.087 119.584 162.778 119.584 163.545C119.584 164.322 119.702 165.027 119.939 165.662C120.18 166.292 120.535 166.794 121.004 167.168C121.478 167.537 122.065 167.722 122.765 167.722Z" fill="#02A5FD"/>
</svg>
