<svg xmlns="http://www.w3.org/2000/svg" width="200" height="300" viewBox="0 0 200 300"><rect width="100%" height="100%" fill="#DDDDDD"/><path fill="#999999" d="M53.64 123.93h3.2v19.52h-1.86q-.43 0-.73-.14-.29-.14-.56-.48L43.5 129.82q.08.89.08 1.64v11.99h-3.2v-19.52h1.91q.23 0 .4.02.16.02.29.08.13.06.25.18.12.11.27.3l10.23 13.07q-.04-.47-.06-.93-.03-.46-.03-.85v-11.87Zm13.15 5.45q1.54 0 2.8.5 1.26.5 2.16 1.42.9.92 1.38 2.24.49 1.32.49 2.96t-.49 2.97q-.48 1.32-1.38 2.25-.9.93-2.16 1.43-1.26.5-2.8.5-1.55 0-2.82-.5-1.27-.5-2.17-1.43-.9-.93-1.39-2.25-.49-1.33-.49-2.97 0-1.64.49-2.96t1.39-2.24q.9-.92 2.17-1.42 1.27-.5 2.82-.5Zm0 11.71q1.73 0 2.56-1.16.83-1.16.83-3.41 0-2.24-.83-3.41-.83-1.18-2.56-1.18-1.76 0-2.6 1.19-.84 1.18-.84 3.4 0 2.23.84 3.4t2.6 1.17Zm20.1-7.35h2.71q1 0 1.75-.25.74-.25 1.23-.71.49-.47.74-1.14.24-.66.24-1.49 0-.78-.24-1.41-.25-.64-.73-1.08-.49-.45-1.23-.69-.74-.23-1.76-.23h-2.71v7Zm-3.63-9.81h6.34q1.96 0 3.39.46 1.43.46 2.37 1.28.93.82 1.38 1.97.45 1.15.45 2.51 0 1.42-.47 2.6-.47 1.18-1.42 2.03-.94.85-2.37 1.33-1.42.47-3.33.47h-2.71v6.87h-3.63v-19.52Zm22.31 5.45q1.54 0 2.81.5 1.26.5 2.16 1.42.89.92 1.38 2.24.49 1.32.49 2.96t-.49 2.97q-.49 1.32-1.38 2.25-.9.93-2.16 1.43-1.27.5-2.81.5-1.55 0-2.82-.5-1.27-.5-2.16-1.43-.9-.93-1.39-2.25-.5-1.33-.5-2.97 0-1.64.5-2.96.49-1.32 1.39-2.24.89-.92 2.16-1.42 1.27-.5 2.82-.5Zm0 11.71q1.73 0 2.56-1.16.83-1.16.83-3.41 0-2.24-.83-3.41-.83-1.18-2.56-1.18-1.75 0-2.59 1.19-.85 1.18-.85 3.4 0 2.23.85 3.4.84 1.17 2.59 1.17Zm18.59-9.99-.75 1.2q-.14.21-.29.3-.14.09-.37.09-.25 0-.52-.13-.28-.14-.64-.31-.37-.17-.83-.3-.47-.14-1.1-.14-.99 0-1.55.42t-.56 1.09q0 .45.29.75.29.31.77.54.48.23 1.09.41.6.18 1.23.4.63.21 1.24.49.6.28 1.08.7.48.43.77 1.02.29.6.29 1.43 0 1-.35 1.85-.36.84-1.06 1.45-.71.62-1.74.96-1.03.35-2.38.35-.72 0-1.4-.13-.68-.13-1.31-.36-.63-.23-1.16-.54-.53-.31-.94-.67l.77-1.27q.15-.23.35-.35.2-.13.52-.13.31 0 .58.18.28.17.64.38.37.2.86.38.49.17 1.25.17.59 0 1.02-.14.42-.14.7-.37.28-.23.41-.54.12-.3.12-.62 0-.49-.29-.8-.29-.31-.77-.54-.47-.23-1.09-.41-.61-.18-1.25-.4-.65-.22-1.26-.51-.61-.29-1.09-.73-.48-.45-.77-1.1-.29-.64-.29-1.56 0-.85.33-1.62.34-.77 1-1.34.65-.58 1.63-.92.98-.35 2.26-.35 1.43 0 2.61.48 1.17.47 1.95 1.24Zm7.28 12.57q-1.81 0-2.77-1.02-.97-1.02-.97-2.82v-7.73h-1.42q-.27 0-.46-.18-.18-.17-.18-.53v-1.32l2.22-.36.71-3.78q.06-.27.25-.42.19-.15.49-.15h1.73v4.36h3.69v2.38h-3.69v7.5q0 .65.31 1.02.32.36.87.36.31 0 .52-.07.21-.08.37-.16.15-.08.27-.16.13-.07.25-.07.15 0 .24.07.1.08.2.23l1 1.62q-.73.61-1.67.92-.95.31-1.96.31Zm8.06-8.74h6.29q0-.65-.18-1.22t-.55-1.01q-.36-.43-.92-.68-.56-.25-1.31-.25-1.44 0-2.27.83-.83.82-1.06 2.33Zm8.51 2.01h-8.58q.08 1.07.38 1.85.3.77.78 1.28.49.5 1.16.75.67.25 1.48.25.81 0 1.39-.18.59-.19 1.03-.42.44-.23.77-.42.33-.19.64-.19.42 0 .62.31l.96 1.21q-.55.65-1.24 1.09-.69.44-1.44.7-.75.27-1.53.37-.77.11-1.5.11-1.45 0-2.69-.48t-2.16-1.41q-.92-.94-1.44-2.33-.53-1.38-.53-3.2 0-1.42.46-2.67t1.32-2.17q.85-.93 2.09-1.47 1.23-.54 2.79-.54 1.31 0 2.41.42 1.11.42 1.91 1.22.79.81 1.25 1.97.45 1.17.45 2.67 0 .76-.16 1.02-.17.26-.62.26Zm6.22-6.5.2 1.56q.65-1.24 1.54-1.95t2.11-.71q.95 0 1.54.42l-.22 2.5q-.07.24-.2.34-.12.1-.34.1-.2 0-.6-.06-.4-.07-.78-.07-.55 0-.98.16-.44.16-.78.47-.34.3-.61.73-.26.43-.49.99v8.53h-3.33V129.6h1.95q.52 0 .72.18.2.18.27.66ZM50.02 168.48h6.21l-2.37-6.49q-.18-.44-.37-1.03-.19-.59-.38-1.28-.17.69-.36 1.29-.19.6-.37 1.04l-2.36 6.47Zm4.96-12.15 7.66 19.52h-2.8q-.48 0-.77-.24-.3-.23-.45-.58l-1.46-3.99h-8.08l-1.46 3.99q-.11.31-.42.56-.31.26-.77.26H43.6l7.68-19.52h3.7ZM74 162h2.63l-5.49 13.85h-3.03L62.62 162h2.75q.38 0 .63.17.25.18.33.45l2.67 7.4q.22.65.38 1.27t.28 1.24q.14-.62.3-1.24.16-.62.39-1.27l2.73-7.4q.09-.27.34-.45.24-.17.58-.17Zm11.72 10.27v-2.33q-1.45.06-2.43.25-.99.18-1.58.46-.6.29-.85.66-.26.38-.26.83 0 .87.52 1.25t1.36.38q1.02 0 1.77-.37t1.47-1.13ZM78.67 165l-.59-1.07q2.38-2.19 5.75-2.19 1.21 0 2.17.4t1.62 1.11q.66.71 1.01 1.69.34.99.34 2.16v8.75h-1.51q-.47 0-.73-.14t-.41-.58l-.29-.99q-.53.47-1.03.83-.5.35-1.04.6-.54.24-1.15.37-.62.13-1.36.13-.88 0-1.62-.24-.74-.24-1.28-.71t-.84-1.17q-.3-.71-.3-1.64 0-.52.18-1.04.17-.52.57-1 .4-.47 1.04-.89.63-.41 1.56-.73.92-.31 2.15-.5 1.23-.2 2.81-.24v-.81q0-1.39-.6-2.06-.59-.67-1.71-.67-.81 0-1.35.19-.53.19-.93.43-.41.24-.74.42-.33.19-.74.19-.35 0-.59-.18t-.39-.42Zm13.54-3h3.35v13.85h-3.35V162Zm3.81-4.04q0 .43-.18.81-.17.38-.46.66-.29.29-.69.46-.39.16-.83.16-.44 0-.82-.16-.38-.17-.67-.46-.28-.28-.45-.66-.17-.38-.17-.81 0-.44.17-.83.17-.4.45-.68.29-.28.67-.45.38-.17.82-.17.44 0 .83.17.4.17.69.45.29.28.46.68.18.39.18.83Zm2.98-2.17h3.33v20.06H99v-20.06Zm13.99 16.48v-2.33q-1.45.06-2.43.25-.99.18-1.58.46-.6.29-.85.66-.26.38-.26.83 0 .87.52 1.25t1.36.38q1.02 0 1.77-.37t1.47-1.13Zm-7.05-7.27-.59-1.07q2.38-2.19 5.75-2.19 1.21 0 2.17.4t1.62 1.11q.66.71 1.01 1.69.34.99.34 2.16v8.75h-1.51q-.47 0-.73-.14t-.41-.58l-.29-.99q-.53.47-1.03.83-.5.35-1.04.6-.54.24-1.15.37-.62.13-1.36.13-.88 0-1.62-.24-.74-.24-1.28-.71t-.84-1.17q-.3-.71-.3-1.64 0-.52.18-1.04.17-.52.57-1 .4-.47 1.04-.89.63-.41 1.56-.73.92-.31 2.15-.5 1.23-.2 2.81-.24v-.81q0-1.39-.6-2.06-.59-.67-1.71-.67-.81 0-1.35.19-.53.19-.93.43-.41.24-.74.42-.33.19-.74.19-.35 0-.59-.18t-.39-.42Zm16.77 1.05v6.21q.56.69 1.23.97.67.28 1.41.28.77 0 1.39-.27.61-.28 1.04-.87.43-.58.66-1.49.23-.92.23-2.19 0-2.28-.75-3.3-.76-1.02-2.18-1.02-.95 0-1.67.44t-1.36 1.24Zm0-10.26v7.91q.83-.88 1.85-1.4 1.02-.52 2.33-.52 1.2 0 2.17.48.96.47 1.65 1.35.68.89 1.04 2.14.37 1.26.37 2.82 0 1.69-.42 3.07-.42 1.37-1.2 2.35-.77.98-1.87 1.52-1.09.54-2.43.54-.65 0-1.17-.13-.53-.12-.97-.35-.45-.23-.82-.56-.37-.33-.71-.74l-.15.93q-.08.35-.27.5-.2.15-.54.15h-2.2v-20.06h3.34Zm12.02 0h3.34v20.06h-3.34v-20.06Zm9.31 11.54h6.29q0-.65-.18-1.22-.19-.57-.55-1.01-.37-.43-.93-.68-.56-.25-1.3-.25-1.44 0-2.27.83-.83.82-1.06 2.33Zm8.5 2.01h-8.57q.08 1.07.38 1.85.29.77.78 1.28.49.5 1.15.75.67.25 1.48.25.81 0 1.4-.19.59-.18 1.03-.41.43-.23.77-.42.33-.19.64-.19.41 0 .62.31l.96 1.21q-.56.65-1.25 1.09-.68.44-1.43.7-.75.27-1.53.37-.78.11-1.5.11-1.45 0-2.69-.48t-2.16-1.41q-.92-.94-1.45-2.33-.52-1.38-.52-3.2 0-1.42.46-2.67t1.31-2.17q.86-.93 2.1-1.47 1.23-.54 2.78-.54 1.31 0 2.42.42 1.11.42 1.9 1.22.8.81 1.25 1.97.45 1.17.45 2.67 0 .76-.16 1.02t-.62.26Z"/></svg>