<svg width="77" height="69" viewBox="0 0 77 69" fill="none" xmlns="http://www.w3.org/2000/svg">
<path d="M13.3979 40.448C13.3019 38.432 13.1099 36.032 11.7659 34.112C12.6299 33.056 13.0139 31.52 13.2059 29.696L15.6059 0.991999H10.4219L8.02188 29.216V29.312C7.92588 31.136 7.73388 31.232 6.58188 31.52L5.62188 31.808V0.991999H0.533875V68.096H5.62188V36.992L7.15788 36.704C7.82988 37.088 8.11788 38.048 8.30988 40.832L10.6139 68.096H15.7019L13.3979 40.448ZM29.8259 6.17599V1.088H20.0339V6.17599H22.3379V62.912H20.0339V68H29.7299V62.912H27.4259V6.17599H29.8259ZM57.3284 0.895994H52.1444V62.912H51.5684C50.7044 62.432 50.4164 61.472 50.2244 58.688L46.4804 9.92C46.1924 7.04 45.9044 2.62399 41.2964 1.184L40.9124 0.991999H34.0964V68H39.1844V6.17599H40.0484C40.8164 6.56 41.1044 7.51999 41.3924 10.304L45.0404 59.072C45.3284 61.856 45.7124 66.368 50.3204 67.904L50.7044 68H57.3284V0.895994ZM69.9171 0.991999H68.0931C64.4451 0.991999 61.5651 4.16 61.5651 8.096V60.896C61.5651 64.736 64.4451 67.904 68.0931 67.904H69.9171C73.4691 67.904 76.4451 64.736 76.4451 60.896V8.096C76.4451 4.16 73.4691 0.991999 69.9171 0.991999ZM71.2611 60.896C71.2611 61.952 70.6851 62.816 69.9171 62.816H68.0931C67.3251 62.816 66.6531 61.952 66.6531 60.896V8.096C66.6531 7.04 67.3251 6.17599 68.0931 6.17599H69.9171C70.6851 6.17599 71.2611 7.04 71.2611 8.096V60.896Z" fill="black" fill-opacity="0.33"/>
</svg>
