<?xml version="1.0" encoding="iso-8859-1"?>
<!-- Uploaded to: SVG Repo, www.svgrepo.com, Generator: SVG Repo Mixer Tools -->
<svg height="800px" width="800px" version="1.1" id="Layer_1" xmlns="http://www.w3.org/2000/svg" xmlns:xlink="http://www.w3.org/1999/xlink" 
	 viewBox="0 0 511.999 511.999" xml:space="preserve">
<path style="fill:#FFE477;" d="M132.393,79.14H79.981v21.326h-46.01V79.14H7.623v353.717h26.35v-8.997h46.009v8.997h353.717v-8.997
	h44.328v8.997h26.35V79.14h-26.35v21.326h-44.328V79.14H221.833H132.393z M478.027,132.39v40.944h-44.328V132.39H478.027z
	 M433.699,246.202v-40.944h44.328v40.944H433.699z M478.027,278.126v40.944h-44.328v-40.944H478.027z M79.981,132.39v40.944h-46.01
	V132.39H79.981z M33.972,246.202v-40.944H79.98v40.944H33.972z M79.981,278.126v40.944h-46.01v-40.944H79.981z M33.972,391.938
	v-40.944H79.98v40.944H33.972z M433.699,391.938v-40.944h44.328v40.944H433.699z"/>
<polyline style="fill:#FFF5CC;" points="296.365,107.554 405.285,107.554 405.285,404.445 108.395,404.445 108.395,107.554 
	201.505,107.554 298.604,107.554 "/>
<polygon style="fill:#CCA400;" points="337.916,219.127 297.433,233.586 297.433,212.541 175.764,212.541 175.764,299.457 
	297.433,299.457 297.433,278.413 337.916,292.871 "/>
<g style="opacity:0.27;">
	<path style="fill:#CCA400;" d="M477.396,213.634v32.568h-44.328v-6.347C287.515,316.951,98.955,338.229,6.992,345.226v87.632h26.35
		v-8.997H79.35v8.997h353.718v-8.997h44.328v8.997h26.35V194.84C495.252,201.386,486.452,207.643,477.396,213.634z M79.35,391.938
		H33.342v-40.944H79.35V391.938z M477.396,391.938h-44.328v-40.944h44.328V391.938z M477.396,319.07h-44.328v-40.944h44.328V319.07z
		"/>
</g>
<path d="M297.433,204.919H175.765c-4.21,0-7.623,3.412-7.623,7.623v86.917c0,4.211,3.413,7.623,7.623,7.623h121.668
	c4.211,0,7.623-3.412,7.623-7.623v-10.228l30.297,10.82c2.334,0.833,4.929,0.481,6.955-0.948c2.027-1.428,3.232-3.751,3.232-6.231
	v-73.744c0-2.479-1.205-4.803-3.232-6.231c-2.025-1.427-4.619-1.783-6.955-0.948l-30.297,10.82V212.54
	C305.056,208.331,301.643,204.919,297.433,204.919z M330.293,229.945v52.11l-30.297-10.82c-2.336-0.834-4.93-0.48-6.955,0.948
	c-2.027,1.428-3.232,3.751-3.232,6.231v13.422H183.387v-71.672H289.81v13.422c0,2.479,1.205,4.803,3.232,6.231
	c2.025,1.427,4.618,1.783,6.955,0.948L330.293,229.945z"/>
<path d="M100.771,107.554v296.892c0,4.211,3.413,7.623,7.623,7.623h296.891c4.211,0,7.623-3.412,7.623-7.623V107.554
	c0-4.211-3.412-7.623-7.623-7.623H296.365c-4.211,0-7.623,3.412-7.623,7.623c0,4.211,3.412,7.623,7.623,7.623h101.297v281.646
	H116.016V115.176h85.488c4.21,0,7.623-3.412,7.623-7.623c0-4.211-3.413-7.623-7.623-7.623h-93.111
	C104.184,99.931,100.771,103.343,100.771,107.554z"/>
<path d="M504.377,71.518h-26.35c-4.211,0-7.623,3.412-7.623,7.623v13.703h-29.083V79.14c0-4.211-3.412-7.623-7.623-7.623H221.833
	c-4.21,0-7.623,3.412-7.623,7.623s3.413,7.623,7.623,7.623h204.243v13.703c0,4.211,3.412,7.623,7.623,7.623h44.328
	c4.211,0,7.623-3.412,7.623-7.623V86.763h11.105v338.473H485.65v-1.375c0-4.211-3.412-7.623-7.623-7.623h-44.328
	c-4.211,0-7.623,3.412-7.623,7.623v1.375H87.603v-1.375c0-4.211-3.413-7.623-7.623-7.623H33.972c-4.21,0-7.623,3.412-7.623,7.623
	v1.375H15.245V86.763h11.104v13.703c0,4.211,3.413,7.623,7.623,7.623H79.98c4.21,0,7.623-3.412,7.623-7.623V86.763h44.789
	c4.21,0,7.623-3.412,7.623-7.623s-3.413-7.623-7.623-7.623H79.98c-4.21,0-7.623,3.412-7.623,7.623v13.703H41.594V79.14
	c0-4.211-3.413-7.623-7.623-7.623H7.623C3.413,71.518,0,74.93,0,79.14v353.718c0,4.211,3.413,7.623,7.623,7.623h26.349
	c4.21,0,7.623-3.412,7.623-7.623v-1.375h30.763v1.375c0,4.211,3.413,7.623,7.623,7.623h353.717c4.211,0,7.623-3.412,7.623-7.623
	v-1.375h29.083v1.375c0,4.211,3.412,7.623,7.623,7.623h26.35c4.211,0,7.623-3.412,7.623-7.623V79.14
	C512,74.93,508.587,71.518,504.377,71.518z"/>
<path d="M426.076,319.07c0,4.211,3.412,7.623,7.623,7.623h44.328c4.211,0,7.623-3.412,7.623-7.623v-40.944
	c0-4.211-3.412-7.623-7.623-7.623h-44.328c-4.211,0-7.623,3.412-7.623,7.623V319.07z M441.321,285.749h29.083v25.699h-29.083
	V285.749z"/>
<path d="M433.699,180.956h44.328c4.211,0,7.623-3.412,7.623-7.623v-40.944c0-4.211-3.412-7.623-7.623-7.623h-44.328
	c-4.211,0-7.623,3.412-7.623,7.623v40.944C426.076,177.544,429.488,180.956,433.699,180.956z M441.321,140.012h29.083v25.699
	h-29.083V140.012z"/>
<path d="M426.076,391.937c0,4.211,3.412,7.623,7.623,7.623h44.328c4.211,0,7.623-3.412,7.623-7.623v-40.943
	c0-4.211-3.412-7.623-7.623-7.623h-44.328c-4.211,0-7.623,3.412-7.623,7.623V391.937z M441.321,358.617h29.083v25.698h-29.083
	V358.617z"/>
<path d="M87.603,205.258c0-4.211-3.413-7.623-7.623-7.623H33.972c-4.21,0-7.623,3.412-7.623,7.623v40.944
	c0,4.211,3.413,7.623,7.623,7.623H79.98c4.21,0,7.623-3.412,7.623-7.623V205.258z M72.358,238.58H41.594v-25.699h30.763V238.58z"/>
<path d="M426.076,246.202c0,4.211,3.412,7.623,7.623,7.623h44.328c4.211,0,7.623-3.412,7.623-7.623v-40.944
	c0-4.211-3.412-7.623-7.623-7.623h-44.328c-4.211,0-7.623,3.412-7.623,7.623V246.202z M441.321,212.881h29.083v25.699h-29.083
	V212.881z"/>
<path d="M87.603,132.389c0-4.211-3.413-7.623-7.623-7.623H33.972c-4.21,0-7.623,3.412-7.623,7.623v40.944
	c0,4.211,3.413,7.623,7.623,7.623H79.98c4.21,0,7.623-3.412,7.623-7.623V132.389z M72.358,165.711H41.594v-25.699h30.763V165.711z"
	/>
<path d="M79.98,343.371H33.972c-4.21,0-7.623,3.412-7.623,7.623v40.943c0,4.211,3.413,7.623,7.623,7.623H79.98
	c4.21,0,7.623-3.412,7.623-7.623v-40.943C87.603,346.784,84.19,343.371,79.98,343.371z M72.358,384.314H41.594v-25.698h30.763
	V384.314z"/>
<path d="M87.603,278.126c0-4.211-3.413-7.623-7.623-7.623H33.972c-4.21,0-7.623,3.412-7.623,7.623v40.944
	c0,4.211,3.413,7.623,7.623,7.623H79.98c4.21,0,7.623-3.412,7.623-7.623V278.126z M72.358,311.447H41.594v-25.699h30.763V311.447z"
	/>
</svg>