<svg width="211" height="44" viewBox="0 0 211 44" fill="none" xmlns="http://www.w3.org/2000/svg">
<path d="M0 4V40L27 22L0 4Z" fill="#E50914"/>
<path d="M47.7839 7.41813L52.2488 7.42945L58.7753 26.2371L65.3972 7.46278L69.862 7.4741L60.551 33.0443L56.9651 33.0352L47.7839 7.41813ZM45.3757 7.41202L49.823 7.4233L50.5851 25.7417L50.5667 33.019L45.3109 33.0057L45.3757 7.41202ZM67.8229 7.46893L72.2878 7.48026L72.2229 33.0739L66.9495 33.0606L66.9679 25.7832L67.8229 7.46893ZM75.7445 23.7664L75.7455 23.3973C75.749 22.0027 75.9515 20.7201 76.3529 19.5492C76.7543 18.3666 77.337 17.3427 78.1009 16.4774C78.8648 15.6122 79.804 14.9407 80.9185 14.4631C82.0331 13.9737 83.311 13.7309 84.7524 13.7345C86.1938 13.7382 87.4764 13.9875 88.6001 14.4826C89.7239 14.9659 90.6656 15.6421 91.4251 16.5112C92.1963 17.3804 92.7797 18.4072 93.1751 19.5918C93.5706 20.7647 93.7665 22.0484 93.763 23.443L93.7621 23.8121C93.7585 25.1949 93.5561 26.4776 93.1546 27.6602C92.7532 28.831 92.1647 29.8549 91.389 30.7319C90.6251 31.5971 89.6859 32.2686 88.5714 32.7462C87.4569 33.2239 86.179 33.4609 84.7376 33.4572C83.2962 33.4536 82.0136 33.2101 80.8898 32.7268C79.7777 32.2435 78.8361 31.5672 78.0649 30.6981C77.3054 29.8173 76.7279 28.7904 76.3324 27.6175C75.937 26.4329 75.741 25.1492 75.7445 23.7664ZM80.808 23.4101L80.807 23.7793C80.805 24.5761 80.8734 25.3204 81.0123 26.0122C81.1512 26.704 81.3723 27.3139 81.6756 27.842C81.9907 28.3584 82.3999 28.7638 82.903 29.058C83.4062 29.3523 84.021 29.5003 84.7476 29.5022C85.4507 29.5039 86.0546 29.359 86.5593 29.0673C87.0639 28.7756 87.4692 28.3723 87.7752 27.8575C88.0812 27.3309 88.3054 26.7221 88.4478 26.0311C88.6019 25.34 88.68 24.5961 88.682 23.7992L88.6829 23.4301C88.6849 22.6566 88.6106 21.9299 88.4599 21.2498C88.3211 20.5581 88.0941 19.9481 87.779 19.42C87.4757 18.8801 87.0725 18.4572 86.5694 18.1513C86.0662 17.8453 85.4572 17.6914 84.7424 17.6896C84.0275 17.6878 83.4178 17.8386 82.9131 18.142C82.4202 18.4454 82.0148 18.8663 81.697 19.4045C81.391 19.9311 81.1668 20.5399 81.0244 21.231C80.8821 21.9103 80.8099 22.6367 80.808 23.4101ZM103.047 29.4607L107.304 14.1433L112.595 14.1567L106.131 33.1599L102.932 33.1518L103.047 29.4607ZM100.185 14.1252L104.382 29.4816L104.461 33.1557L101.244 33.1475L94.8765 14.1118L100.185 14.1252ZM120.206 14.176L120.158 33.1955L115.078 33.1826L115.126 14.1631L120.206 14.176ZM114.823 9.20529C114.824 8.46702 115.084 7.8583 115.601 7.37914C116.118 6.89998 116.81 6.6615 117.677 6.66369C118.532 6.66586 119.217 6.90784 119.732 7.38961C120.258 7.87141 120.52 8.48146 120.518 9.21974C120.516 9.95801 120.251 10.5667 119.722 11.0458C119.205 11.525 118.519 11.7635 117.664 11.7613C116.797 11.7591 116.106 11.5171 115.591 11.0354C115.077 10.5536 114.821 9.94357 114.823 9.20529ZM133.095 33.5798C131.618 33.5761 130.295 33.3384 129.124 32.8666C127.953 32.3832 126.959 31.7186 126.141 30.8727C125.334 30.0269 124.716 29.0468 124.285 27.9325C123.854 26.8064 123.64 25.6105 123.644 24.3449L123.645 23.6418C123.649 22.2004 123.857 20.8825 124.271 19.6883C124.684 18.494 125.272 17.4584 126.036 16.5814C126.812 15.7045 127.751 15.033 128.854 14.5671C129.957 14.0894 131.2 13.8523 132.582 13.8558C133.93 13.8592 135.125 14.0849 136.167 14.5329C137.208 14.9808 138.08 15.6158 138.781 16.4379C139.494 17.2601 140.03 18.2458 140.391 19.3952C140.751 20.5328 140.929 21.7989 140.926 23.1934L140.921 25.3028L125.803 25.2644L125.812 21.8894L135.954 21.9152L135.955 21.5284C135.957 20.8253 135.83 20.198 135.574 19.6466C135.329 19.0835 134.955 18.6372 134.452 18.3078C133.949 17.9784 133.305 17.8127 132.52 17.8107C131.852 17.809 131.277 17.9541 130.796 18.2458C130.315 18.5376 129.921 18.9467 129.615 19.4733C129.321 19.9999 129.096 20.6204 128.942 21.3349C128.8 22.0376 128.728 22.8109 128.725 23.6547L128.724 24.3578C128.722 25.1195 128.825 25.8229 129.035 26.4679C129.256 27.113 129.565 27.6705 129.962 28.1402C130.371 28.61 130.862 28.9745 131.436 29.2338C132.021 29.4931 132.683 29.6237 133.421 29.6256C134.335 29.6279 135.185 29.4543 135.971 29.1047C136.769 28.7434 137.456 28.2002 138.032 27.4751L140.486 30.1532C140.086 30.7265 139.54 31.2758 138.847 31.8014C138.166 32.3271 137.345 32.7586 136.383 33.096C135.421 33.4217 134.325 33.5829 133.095 33.5798ZM154.56 12.0658L147.545 33.2649L141.937 33.2507L151.512 7.68113L155.08 7.69018L154.56 12.0658ZM160.289 33.2972L153.364 12.0628L152.813 7.68443L156.416 7.69356L165.914 33.3115L160.289 33.2972ZM159.997 23.7691L159.986 27.8999L146.469 27.8657L146.479 23.7348L159.997 23.7691ZM172.51 17.9649L172.452 40.6406L167.39 40.6277L167.456 14.2958L172.15 14.3077L172.51 17.9649ZM184.536 23.638L184.535 24.0071C184.532 25.3899 184.364 26.6727 184.033 27.8554C183.714 29.0382 183.243 30.0683 182.619 30.9456C181.996 31.8112 181.221 32.489 180.294 32.9788C179.378 33.4569 178.323 33.6945 177.128 33.6915C175.968 33.6885 174.961 33.4516 174.106 32.9807C173.252 32.5098 172.533 31.8517 171.949 31.0065C171.377 30.1495 170.917 29.1581 170.568 28.0322C170.219 26.9064 169.953 25.6986 169.769 24.4091L169.771 23.4423C169.962 22.06 170.235 20.795 170.589 19.6475C170.944 18.4882 171.409 17.4875 171.986 16.6452C172.574 15.7912 173.29 15.1309 174.135 14.6643C174.992 14.1977 175.994 13.9659 177.143 13.9688C178.35 13.9719 179.41 14.2031 180.323 14.6624C181.247 15.1218 182.019 15.78 182.638 16.637C183.269 17.4941 183.741 18.5148 184.054 19.6992C184.379 20.8836 184.54 22.1966 184.536 23.638ZM179.455 23.9942L179.456 23.6251C179.458 22.8165 179.39 22.0722 179.251 21.3921C179.124 20.7004 178.914 20.0963 178.623 19.58C178.343 19.0636 177.969 18.6643 177.501 18.3818C177.044 18.0877 176.488 17.9398 175.832 17.9381C175.14 17.9364 174.548 18.0462 174.056 18.2676C173.575 18.4891 173.181 18.8103 172.875 19.2314C172.57 19.6525 172.34 20.1559 172.186 20.7414C172.032 21.327 171.937 21.9888 171.9 22.727L171.894 25.1704C171.95 26.0377 172.112 26.8174 172.38 27.5095C172.648 28.1899 173.062 28.73 173.624 29.1298C174.185 29.5297 174.923 29.7308 175.837 29.7331C176.505 29.7348 177.068 29.5897 177.526 29.2979C177.984 28.9944 178.354 28.5793 178.636 28.0527C178.931 27.5261 179.137 26.9172 179.256 26.2261C179.387 25.5351 179.453 24.7911 179.455 23.9942ZM192.759 18.0162L192.702 40.6919L187.64 40.6791L187.706 14.3471L192.4 14.359L192.759 18.0162ZM204.786 23.6893L204.785 24.0584C204.782 25.4412 204.614 26.724 204.283 27.9068C203.964 29.0896 203.493 30.1196 202.869 30.997C202.246 31.8626 201.471 32.5403 200.544 33.0301C199.628 33.5083 198.573 33.7458 197.378 33.7428C196.218 33.7399 195.21 33.5029 194.356 33.032C193.502 32.5611 192.783 31.903 192.199 31.0578C191.627 30.2009 191.167 29.2095 190.818 28.0836C190.469 26.9577 190.203 25.75 190.019 24.4605L190.021 23.4937C190.212 22.1113 190.485 20.8464 190.839 19.6988C191.194 18.5396 191.659 17.5388 192.235 16.6965C192.824 15.8425 193.54 15.1822 194.385 14.7156C195.242 14.2491 196.244 14.0172 197.393 14.0201C198.6 14.0232 199.66 14.2544 200.573 14.7137C201.497 15.1731 202.269 15.8313 202.888 16.6884C203.519 17.5454 203.991 18.5662 204.304 19.7506C204.629 20.935 204.79 22.2479 204.786 23.6893ZM199.705 24.0456L199.706 23.6764C199.708 22.8678 199.64 22.1235 199.501 21.4435C199.374 20.7517 199.164 20.1477 198.873 19.6313C198.593 19.115 198.219 18.7156 197.751 18.4332C197.294 18.139 196.738 17.9911 196.082 17.9895C195.39 17.9877 194.798 18.0976 194.306 18.319C193.825 18.5404 193.431 18.8617 193.125 19.2828C192.82 19.7039 192.59 20.2072 192.436 20.7927C192.282 21.3783 192.187 22.0402 192.15 22.7784L192.144 25.2217C192.2 26.089 192.362 26.8687 192.63 27.5608C192.898 28.2412 193.312 28.7813 193.874 29.1812C194.435 29.581 195.173 29.7821 196.087 29.7845C196.755 29.7861 197.318 29.6411 197.776 29.3493C198.233 29.0458 198.604 28.6307 198.886 28.104C199.181 27.5774 199.387 26.9686 199.506 26.2775C199.637 25.5864 199.703 24.8424 199.705 24.0456Z" fill="white"/>
</svg>
