<?xml version="1.0" ?><!-- Uploaded to: SVG Repo, www.svgrepo.com, Generator: SVG Repo Mixer Tools -->
<svg viewBox="0 0 60 60" xmlns="http://www.w3.org/2000/svg">
    <rect fill="transparent" height="60" rx="10" width="60"/>
    <polygon fill="#bec6f4"
             points="30 4.388 37.527 19.64 54.359 22.085 42.179 33.957 45.055 50.721 30 42.806 14.945 50.721 17.821 33.957 5.641 22.085 22.473 19.64 30 4.388"/>
    <path d="M45.055,52.221a1.505,1.505,0,0,1-.7-.172L30,44.5,15.644,52.049a1.5,1.5,0,0,1-2.177-1.582L16.209,34.48,4.594,23.159A1.5,1.5,0,0,1,5.425,20.6l16.052-2.332L28.655,3.724a1.5,1.5,0,0,1,2.69,0l7.178,14.545L54.575,20.6a1.5,1.5,0,0,1,.831,2.558L43.791,34.48l2.742,15.987a1.5,1.5,0,0,1-1.478,1.754ZM30,41.307a1.5,1.5,0,0,1,.7.172l12.365,6.5L40.7,34.211a1.5,1.5,0,0,1,.432-1.328l10-9.75L37.312,21.124a1.5,1.5,0,0,1-1.129-.82L30,7.777,23.817,20.3a1.5,1.5,0,0,1-1.129.82L8.864,23.133l10,9.75a1.5,1.5,0,0,1,.432,1.328L16.938,47.979l12.364-6.5A1.5,1.5,0,0,1,30,41.307Z"
          fill="#8d9cf4"/>
    <circle cx="30" cy="30" fill="#8d9cf4" r="16"/>
    <path d="M30,47.5A17.5,17.5,0,1,1,47.5,30,17.521,17.521,0,0,1,30,47.5Zm0-32A14.5,14.5,0,1,0,44.5,30,14.517,14.517,0,0,0,30,15.5Z"
          fill="#bec6f4"/>
    <path d="M14,31.5A1.5,1.5,0,0,1,12.5,30,17.521,17.521,0,0,1,30,12.5a1.5,1.5,0,0,1,0,3A14.517,14.517,0,0,0,15.5,30,1.5,1.5,0,0,1,14,31.5Z"
          fill="#f1f3f4"/>
    <polygon fill="#f1f3f4" points="34 28.667 40 26 40 34 34 31.333 34 28.667"/>
    <path d="M40,35a.994.994,0,0,1-.406-.086l-6-2.667A1,1,0,0,1,33,31.333V28.667a1,1,0,0,1,.594-.914l6-2.667A1,1,0,0,1,41,26v8a1,1,0,0,1-1,1Zm-5-4.316,4,1.777V27.539l-4,1.777Z"
          fill="#f1f3f4"/>
    <path d="M33,24H20v2h2v9a1,1,0,0,0,1,1H33a1,1,0,0,0,1-1V25A1,1,0,0,0,33,24Z" fill="#f1f3f4"/>
    <path d="M33,37H23a2,2,0,0,1-2-2V27H20a1,1,0,0,1-1-1V24a1,1,0,0,1,1-1H33a2,2,0,0,1,2,2V35A2,2,0,0,1,33,37ZM21,25h1a1,1,0,0,1,1,1v9H33V25Z"
          fill="#f1f3f4"/>
</svg>