<?xml version="1.0" encoding="iso-8859-1"?>
<!-- Uploaded to: SVG Repo, www.svgrepo.com, Generator: SVG Repo Mixer Tools -->
<!DOCTYPE svg PUBLIC "-//W3C//DTD SVG 1.1//EN" "http://www.w3.org/Graphics/SVG/1.1/DTD/svg11.dtd">
<svg fill="#000000" height="800px" width="800px" version="1.1" id="Capa_1" xmlns="http://www.w3.org/2000/svg" xmlns:xlink="http://www.w3.org/1999/xlink" 
	 viewBox="0 0 355.333 355.333" xml:space="preserve">
<g id="Camara_cine">
	<path d="M353.143,167.919c-1.388-1.139-3.21-1.599-4.973-1.25l-40.504,8c-2.811,0.555-4.837,3.021-4.837,5.886v4.626h-20.503
		v-3.419c0-10.613-8.972-19.248-20-19.248H243.41c23.777-10.602,40.401-34.448,40.401-62.119c0-37.49-30.5-67.99-67.99-67.99
		c-27.681,0-51.534,16.637-62.131,40.428c-10.596-23.792-34.45-40.428-62.131-40.428c-37.49,0-67.99,30.5-67.99,67.99
		c0,27.67,16.624,51.516,40.401,62.119H45.333c-10.646,0-19.351,8.053-19.943,18.159l-18.455-2.914
		c-1.733-0.271-3.5,0.226-4.833,1.365C0.768,180.264,0,181.93,0,183.685v39.492c0,1.755,0.768,3.421,2.102,4.562
		c1.094,0.935,2.479,1.438,3.898,1.438c0.311,0,0.624-0.024,0.936-0.073l18.398-2.905v17.222v27.005v0.752
		c0,10.613,8.972,19.248,20,19.248h41.249v26.503c0,3.313,2.687,6,6,6h122.497c3.313,0,6-2.687,6-6v-26.503h41.248
		c11.028,0,20-8.634,20-19.248v-0.752v-9.252h20.503v4.626c0,2.866,2.026,5.331,4.837,5.886l40.504,8
		c0.387,0.076,0.776,0.114,1.163,0.114c1.378,0,2.727-0.475,3.81-1.365c1.387-1.14,2.19-2.84,2.19-4.635V172.555
		C355.333,170.76,354.53,169.059,353.143,167.919z M215.821,44.405c30.873,0,55.99,25.117,55.99,55.99
		c0,30.874-25.117,55.991-55.99,55.991s-55.991-25.117-55.991-55.991C159.83,69.522,184.948,44.405,215.821,44.405z M35.569,100.395
		c0-30.873,25.117-55.99,55.99-55.99c30.874,0,55.991,25.117,55.991,55.99c0,25.257-16.813,46.652-39.833,53.604v-52.612
		c0.02-0.33,0.05-0.657,0.05-0.992c0-8.938-7.271-16.208-16.208-16.208s-16.208,7.271-16.208,16.208h-0.05v53.575
		C52.333,146.987,35.569,125.615,35.569,100.395z M87.301,116.017c1.359,0.371,2.783,0.587,4.258,0.587
		c1.44,0,2.829-0.207,4.158-0.561v40.172c-1.375,0.102-2.758,0.171-4.158,0.171c-1.434,0-2.851-0.072-4.258-0.178V116.017z
		 M95.717,100.395v0.498c-0.25,2.084-2.008,3.711-4.158,3.711c-2.321,0-4.208-1.888-4.208-4.208s1.888-4.208,4.208-4.208
		s4.208,1.888,4.208,4.208H95.717z M153.69,127.957c6.837,15.351,19.193,27.712,34.541,34.556h-69.083
		C134.497,155.67,146.853,143.309,153.69,127.957z M45.333,174.514h216.993c4.411,0,8,3.251,8,7.248v9.419v46.24H37.333v-55.659
		C37.333,177.765,40.922,174.514,45.333,174.514z M12,216.155v-25.449l13.333,2.106v21.238L12,216.155z M209.079,310.929H98.582
		v-20.503h110.497V310.929z M215.079,278.425H92.582H45.333c-4.411,0-8-3.589-8-8V249.42h232.993v5.753v15.252c0,4.411-3.589,8-8,8
		H215.079z M282.327,249.173v-5.753v-46.24h20.503v51.993H282.327z M343.333,266.499l-28.504-5.63v-5.695v-63.993v-5.695
		l28.504-5.63V266.499z"/>
	<path d="M208.355,216.507h42.979c3.313,0,6-2.687,6-6v-20.661c0-3.313-2.687-6-6-6h-42.979c-3.313,0-6,2.687-6,6v20.661
		C202.355,213.82,205.042,216.507,208.355,216.507z M214.355,195.846h30.979v8.661h-30.979V195.846z"/>
	<path d="M215.821,116.604c8.938,0,16.208-7.271,16.208-16.208s-7.271-16.208-16.208-16.208s-16.209,7.271-16.209,16.208
		S206.883,116.604,215.821,116.604z M215.821,96.187c2.32,0,4.208,1.888,4.208,4.208s-1.888,4.208-4.208,4.208
		c-2.321,0-4.209-1.888-4.209-4.208S213.5,96.187,215.821,96.187z"/>
</g>
</svg>